<svg width="53" height="41" viewBox="0 0 53 41" fill="none" xmlns="http://www.w3.org/2000/svg">
<path d="M0.166992 40.6116V0.611574H52.167V40.6116H0.166992ZM0.166992 40.6116H52.167V0.611574H0.166992V40.6116ZM9.91699 30.6116H13.167V25.6116H39.167V30.6116H42.417V17.2782C42.417 15.4449 41.7805 13.8755 40.5076 12.5699C39.2347 11.2643 37.7045 10.6116 35.917 10.6116H24.542V22.2782H13.167V7.27824H9.91699V30.6116ZM18.8545 20.6116C19.992 20.6116 20.9535 20.2088 21.7389 19.4032C22.5243 18.5977 22.917 17.6116 22.917 16.4449C22.917 15.2782 22.5243 14.2921 21.7389 13.4866C20.9535 12.681 19.992 12.2782 18.8545 12.2782C17.717 12.2782 16.7555 12.681 15.9701 13.4866C15.1847 14.2921 14.792 15.2782 14.792 16.4449C14.792 17.6116 15.1847 18.5977 15.9701 19.4032C16.7555 20.2088 17.717 20.6116 18.8545 20.6116Z" fill="#949EDA"/>
</svg>
